# File created by Blade
# Date/Time:  Wed Apr 08 16:19:59 2015
# Frame Rate: 120.000 fps
#------------------------------------------------------
:FULLY-SPECIFIED
:DEGREES
2152
root -18.586682 28.824279 1.772604 349.488679 -73.202429 -407.355216
Spine -76.250389 -14.485571 5.267815
Head -93.558215 4.479892 11.360329
LeftShoulder -13.494635 -11.884800 45.886899
LeftArm 260.276568 -64.312213 -222.435949
LeftForeArm -24.088879 -0.000000 11.009261
LeftHand 19.183998 -0.000000 107.047852
LeftHandThumb1 -26.253704 0.000000 33.147579
RightShoulder -20.308651 50.941740 -58.374388
RightArm -14.000566 56.078842 -43.018283
RightForeArm 42.135287 -0.000000 13.578999
RightHand 22.244680 -0.000000 -102.140357
RightHandThumb1 -24.326973 -0.000000 -32.862282
LeftUpLeg 7.970384 5.911812 9.949859
LeftLeg 35.111676 -0.000000 -0.000000
LeftFoot 9.739252 -11.916706 -14.296298
LeftToeBase -24.245804 -0.000000 0.000000
RightUpLeg 6.668167 -14.652225 -7.579115
RightLeg 40.410390 -0.000000 -0.000000
RightFoot 30.876153 -6.558629 -5.205477
RightToeBase -28.202339 -0.000000 0.000000
2153
root -18.621137 28.834427 1.777968 349.578023 -73.200600 -407.508136
Spine -76.223284 -14.506292 5.273945
Head -93.461476 4.512061 11.399678
LeftShoulder -13.530835 -11.853701 45.884126
LeftArm 259.600493 -64.466710 -221.777226
LeftForeArm -23.818730 -0.000000 11.147490
LeftHand 19.157132 0.000000 107.112030
LeftHandThumb1 -26.253704 0.000000 33.147579
RightShoulder -20.378184 50.878665 -58.503902
RightArm -14.138195 56.376452 -42.796683
RightForeArm 41.757726 -0.000000 14.016782
RightHand 22.139538 -0.000000 -102.195566
RightHandThumb1 -24.326973 -0.000000 -32.862282
LeftUpLeg 8.064404 5.886739 10.007239
LeftLeg 35.176263 -0.000000 -0.000000
LeftFoot 9.570945 -11.922102 -14.243256
LeftToeBase -24.388018 -0.000000 0.000000
RightUpLeg 6.719289 -14.659164 -7.559669
RightLeg 40.526438 -0.000000 -0.000000
RightFoot 30.872084 -6.555234 -5.211713
RightToeBase -28.144785 -0.000000 0.000000
2154
root -18.657925 28.844044 1.785259 349.565211 -73.207202 -407.576627
Spine -76.178992 -14.520248 5.270337
Head -93.362480 4.568469 11.379056
LeftShoulder -13.551298 -11.734614 45.833386
LeftArm 259.226494 -64.557804 -221.400666
LeftForeArm -23.747068 -0.000000 11.212468
LeftHand 19.181530 -0.000000 107.214575
LeftHandThumb1 -26.253704 0.000000 33.147579
RightShoulder -20.384305 50.857018 -58.541803
RightArm -14.164360 56.598768 -42.584442
RightForeArm 41.433828 -0.000000 14.344445
RightHand 22.064166 0.000000 -102.179110
RightHandThumb1 -24.326973 -0.000000 -32.862282
LeftUpLeg 8.182618 5.866125 10.039023
LeftLeg 35.255724 -0.000000 -0.000000
LeftFoot 9.382857 -11.927003 -14.141944
LeftToeBase -24.604891 -0.000000 0.000000
RightUpLeg 6.789121 -14.645237 -7.565933
RightLeg 40.646948 -0.000000 -0.000000
RightFoot 30.858968 -6.555932 -5.224957
RightToeBase -28.267927 -0.000000 0.000000
2155
root -18.690215 28.850363 1.792094 349.562261 -73.189789 -407.558291
Spine -76.234166 -14.523478 5.220131
Head -93.302741 4.544838 11.309403
LeftShoulder -13.607456 -11.573894 45.767120
LeftArm 258.508755 -64.678931 -220.749764
LeftForeArm -23.592668 -0.000000 11.343460
LeftHand 19.065708 0.000000 107.434804
LeftHandThumb1 -26.253704 0.000000 33.147579
RightShoulder -20.447248 50.799818 -58.660743
RightArm -14.144358 56.748997 -42.312465
RightForeArm 41.158215 -0.000000 14.643404
RightHand 21.923040 0.000000 -102.234743
RightHandThumb1 -24.326973 -0.000000 -32.862282
LeftUpLeg 8.174390 5.824483 10.016044
LeftLeg 35.369468 -0.000000 -0.000000
LeftFoot 9.209736 -11.891429 -14.084985
LeftToeBase -24.649874 -0.000000 0.000000
RightUpLeg 6.745360 -14.649683 -7.568839
RightLeg 40.791161 -0.000000 -0.000000
RightFoot 30.853136 -6.573107 -5.261830
RightToeBase -28.149332 -0.000000 0.000000
